HIERARCHY
ROOT Hips
{
  OFFSET 54.3218 94.0682 17.3336
  CHANNELS 6 Xposition Yposition Zposition Zrotation Xrotation Yrotation
  JOINT spine
  {
    OFFSET 0 7.80059 0.448573
    CHANNELS 3 Zrotation Xrotation Yrotation
    JOINT spine1
    {
      OFFSET 0 10.1364 0
      CHANNELS 3 Zrotation Xrotation Yrotation
      JOINT spine2
      {
        OFFSET 0 9.71251 0
        CHANNELS 3 Zrotation Xrotation Yrotation
        JOINT Neck
        {
          OFFSET 0 24.9361 1.18887
          CHANNELS 3 Zrotation Xrotation Yrotation
          JOINT Head
          {
            OFFSET 0 7.53384 0
            CHANNELS 3 Zrotation Xrotation Yrotation
            End Site
            {
              OFFSET 0 18.2361 -6.01402
            }
          }
        }
        JOINT RightShoulder
        {
          OFFSET -4.08965 10.4888 -0.569457
          CHANNELS 3 Zrotation Xrotation Yrotation
          JOINT RightArm
          {
            OFFSET 0 13.757 0
            CHANNELS 3 Zrotation Xrotation Yrotation
            JOINT RightArmRoll
            {
              OFFSET 0 6.94478 0
              CHANNELS 3 Zrotation Xrotation Yrotation
              JOINT RightForeArm
              {
                OFFSET 0 20.2277 0
                CHANNELS 3 Zrotation Xrotation Yrotation
                JOINT RightForeArmRoll
                {
                  OFFSET 0 7.79312 0
                  CHANNELS 3 Zrotation Xrotation Yrotation
                  JOINT RightHand
                  {
                    OFFSET 0 15.6391 0
                    CHANNELS 3 Zrotation Xrotation Yrotation
                    End Site
                    {
                      OFFSET 0 0 0
                    }
                  }
                }
              }
            }
          }
        }
        JOINT LeftShoulder
        {
          OFFSET 4.08965 10.4888 -0.569457
          CHANNELS 3 Zrotation Xrotation Yrotation
          JOINT LeftArm
          {
            OFFSET 0 13.757 0
            CHANNELS 3 Zrotation Xrotation Yrotation
            JOINT LeftArmRoll
            {
              OFFSET 0 6.94478 0
              CHANNELS 3 Zrotation Xrotation Yrotation
              JOINT LeftForeArm
              {
                OFFSET 0 20.2277 0
                CHANNELS 3 Zrotation Xrotation Yrotation
                JOINT LeftForeArmRoll
                {
                  OFFSET 0 7.79312 0
                  CHANNELS 3 Zrotation Xrotation Yrotation
                  JOINT LeftHand
                  {
                    OFFSET 0 15.6391 0
                    CHANNELS 3 Zrotation Xrotation Yrotation
                    End Site
                    {
                      OFFSET 0 0 0
                    }
                  }
                }
              }
            }
          }
        }
      }
    }
  }
  JOINT RightUpLeg
  {
    OFFSET -6.91416 -1.26788 -1.06358
    CHANNELS 3 Zrotation Xrotation Yrotation
    JOINT RightUpLegRoll
    {
      OFFSET 0 18.3378 0
      CHANNELS 3 Zrotation Xrotation Yrotation
      JOINT RightLeg
      {
        OFFSET 0 -22.7085 0
        CHANNELS 3 Zrotation Xrotation Yrotation
        JOINT RightLegRoll
        {
          OFFSET 0 22.7828 0
          CHANNELS 3 Zrotation Xrotation Yrotation
          JOINT RightFoot
          {
            OFFSET 0 18.9629 0
            CHANNELS 3 Zrotation Xrotation Yrotation
            JOINT RightToeBase
            {
              OFFSET 0 15.852 0
              CHANNELS 3 Zrotation Xrotation Yrotation
              End Site
              {
                OFFSET 0.00671906 7.67701 -0.884892
              }
            }
          }
        }
      }
    }
  }
  JOINT LeftUpLeg
  {
    OFFSET 6.91416 -1.26788 -1.06358
    CHANNELS 3 Zrotation Xrotation Yrotation
    JOINT LeftUpLegRoll
    {
      OFFSET 0 18.3379 0
      CHANNELS 3 Zrotation Xrotation Yrotation
      JOINT LeftLeg
      {
        OFFSET 0 22.7084 0
        CHANNELS 3 Zrotation Xrotation Yrotation
        JOINT LeftLegRoll
        {
          OFFSET 0 22.9934 0
          CHANNELS 3 Zrotation Xrotation Yrotation
          JOINT LeftFoot
          {
            OFFSET 0 18.7522 0
            CHANNELS 3 Zrotation Xrotation Yrotation
            JOINT LeftToeBase
            {
              OFFSET 0 15.852 0
              CHANNELS 3 Zrotation Xrotation Yrotation
              End Site
              {
                OFFSET -0.030112 7.677 -0.884893
              }
            }
          }
        }
      }
    }
  }
}
MOTION
Frames: 4
Frame Time: 0.00208333
54.6088 94.0071 16.9776 -0.151342 -5.49518 -2.33459 -0.127784 -0.331941 0.288825 -0.283168 3.32842 0.582677 -0.29045 4.97345 0.588282 -2.55134 15.4705 -0.173744 7.00318 -15.5149 0.744855 78.8441 -4.08294 -3.91193 92.4352 12.8882 15.1481 -9.7958e-006 4.01188e-006 6.44411e-006 10.6223 14.2175 -2.38949 -8.17516e-006 2.70532e-006 -3 8.02894 -4.95142 0.697685 -67.1583 0.676814 0.661733 -104.99 2.87044 -16.5255 -4.12478e-015 -1.19271e-015 -0 -2.48077 17.4431 1.44057 4.00919e-006 -3.55872e-007 3 -8.02998 -4.95141 -0.697664 174.112 0.353462 0.81459 180 7.01583e-015 179.094 -179.203 11.8778 178.933 7.09568e-006 -4.46019e-006 -0.0239531 -15.03 69.3062 20.4975 8.13661 25.2343 -3.48546 -178.583 -1.101 6.17565 4.54188e-006 -4.6773e-006 -1.38748 -4.21226 -12.3534 -0.163736 -8.95488e-007 -4.00096e-006 -0.241856 23.5207 71.6406 -23.3357 -8.13649 25.2327 3.48774 
54.6022 94.0073 16.975 -0.151355 -5.49827 -2.33034 -0.128372 -0.330333 0.288026 -0.28359 3.33256 0.581455 -0.290883 4.97759 0.587048 -2.54933 15.4451 -0.175908 7.00683 -15.5083 0.744249 78.8485 -4.08417 -3.9127 92.4021 12.8598 15.3031 -9.7958e-006 4.01188e-006 6.44411e-006 10.5461 14.0845 -2.36932 -8.17516e-006 2.70532e-006 -3 8.02894 -4.95142 0.697685 -67.157 0.675762 0.662128 -104.994 2.84752 -16.644 8.4235e-015 1.59028e-015 3.18055e-015 -2.39996 17.2539 1.41824 4.00919e-006 -3.55872e-007 3 -8.02998 -4.95141 -0.697664 174.113 0.351211 0.814515 180 7.01583e-015 179.094 -179.202 11.8891 178.931 7.09568e-006 -4.46019e-006 -0.0238859 -15.0429 69.3157 20.5054 8.13661 25.2343 -3.48546 -178.58 -1.10612 6.18312 4.54188e-006 -4.6773e-006 -1.38756 -4.19866 -12.3585 -0.160942 -8.95488e-007 -4.00096e-006 -0.242249 23.5098 71.6483 -23.3416 -8.13649 25.2327 3.48774 
54.6092 94.0069 16.9787 -0.15134 -5.50105 -2.32604 -0.128973 -0.328775 0.287215 -0.284023 3.33664 0.580208 -0.291332 4.98168 0.585787 -2.54714 15.4193 -0.178056 7.01047 -15.5015 0.743705 78.8532 -4.08541 -3.9135 92.3692 12.8323 15.4598 -9.7958e-006 4.01188e-006 6.44411e-006 10.469 13.9485 -2.34878 -8.17516e-006 2.70532e-006 -3 8.02894 -4.95142 0.697685 -67.1557 0.674682 0.662525 -104.998 2.82537 -16.7627 -1.47722e-014 -6.36111e-015 -3.18055e-015 -2.31888 17.0635 1.3957 4.00919e-006 -3.55872e-007 3 -8.02998 -4.95141 -0.697664 174.115 0.349326 0.814385 180 7.01583e-015 179.094 -179.201 11.9002 178.93 7.09568e-006 -4.46019e-006 -0.0238456 -15.0559 69.3249 20.5131 8.13661 25.2343 -3.48546 -178.576 -1.11087 6.19039 4.54188e-006 -4.6773e-006 -1.38762 -4.18497 -12.3636 -0.158103 -8.95488e-007 -4.00096e-006 -0.242631 23.4986 71.6563 -23.3477 -8.13649 25.2327 3.48774 
54.5992 94.0025 16.9729 -0.151306 -5.50361 -2.32171 -0.129584 -0.327252 0.286396 -0.284464 3.34068 0.578942 -0.291791 4.98572 0.584508 -2.54482 15.3934 -0.18019 7.01412 -15.4945 0.743204 78.8582 -4.08666 -3.91431 92.3366 12.8055 15.6177 -9.7958e-006 4.01188e-006 6.44411e-006 10.3913 13.8105 -2.32798 -8.17516e-006 2.70532e-006 -3 8.02894 -4.95142 0.697685 -67.1542 0.673582 0.662922 -105.002 2.80377 -16.8817 -3.5334e-014 -1.05853e-014 -0 -2.23766 16.8724 1.37303 4.00919e-006 -3.55872e-007 3 -8.02998 -4.95141 -0.697664 174.117 0.347697 0.814214 180 7.01583e-015 179.094 -179.2 11.9112 178.929 7.09568e-006 -4.46019e-006 -0.0238241 -15.0689 69.3341 20.5209 8.13661 25.2343 -3.48546 -178.572 -1.11537 6.19753 4.54188e-006 -4.6773e-006 -1.38766 -4.17122 -12.3688 -0.155231 -8.95488e-007 -4.00096e-006 -0.243005 23.4872 71.6645 -23.354 -8.13649 25.2327 3.48774 
